<?xml version="1.0" encoding="UTF-8" standalone="no"?>
<svg
   xmlns:dc="http://purl.org/dc/elements/1.1/"
   xmlns:cc="http://creativecommons.org/ns#"
   xmlns:rdf="http://www.w3.org/1999/02/22-rdf-syntax-ns#"
   xmlns:svg="http://www.w3.org/2000/svg"
   xmlns="http://www.w3.org/2000/svg"
   xmlns:xlink="http://www.w3.org/1999/xlink"
   xmlns:sodipodi="http://sodipodi.sourceforge.net/DTD/sodipodi-0.dtd"
   xmlns:inkscape="http://www.inkscape.org/namespaces/inkscape"
   inkscape:export-ydpi="48.000008"
   inkscape:export-xdpi="48.000008"
   inkscape:export-filename="/home/bilbo/venvs/labscript/desktop-app/example/oink/oink.png"
   sodipodi:docname="oink.svg"
   inkscape:version="1.0 (4035a4fb49, 2020-05-01)"
   id="svg6591"
   version="1.1"
   viewBox="0 0 8.4666664 8.4666664"
   height="32"
   width="32">
  <defs
     id="defs6585">
    <linearGradient
       inkscape:collect="always"
       id="linearGradient1013">
      <stop
         style="stop-color:#f36666;stop-opacity:1;"
         offset="0"
         id="stop1009" />
      <stop
         style="stop-color:#ce8383;stop-opacity:1"
         offset="1"
         id="stop1011" />
    </linearGradient>
    <linearGradient
       inkscape:collect="always"
       id="linearGradient997">
      <stop
         style="stop-color:#f36666;stop-opacity:1"
         offset="0"
         id="stop993" />
      <stop
         style="stop-color:#f3a9a9;stop-opacity:1"
         offset="1"
         id="stop995" />
    </linearGradient>
    <inkscape:path-effect
       message="Use fill-rule evenodd on &lt;b&gt;fill and stroke&lt;/b&gt; dialog if no flatten result after convert clip to paths."
       hide_clip="false"
       flatten="false"
       inverse="true"
       lpeversion="1"
       is_visible="true"
       id="path-effect7676"
       effect="powerclip" />
    <inkscape:path-effect
       message="Use fill-rule evenodd on &lt;b&gt;fill and stroke&lt;/b&gt; dialog if no flatten result after convert clip to paths."
       hide_clip="false"
       flatten="false"
       inverse="true"
       lpeversion="1"
       is_visible="true"
       id="path-effect7664"
       effect="powerclip" />
    <inkscape:path-effect
       message="Use fill-rule evenodd on &lt;b&gt;fill and stroke&lt;/b&gt; dialog if no flatten result after convert clip to paths."
       hide_clip="false"
       flatten="false"
       inverse="true"
       lpeversion="1"
       is_visible="true"
       id="path-effect7654"
       effect="powerclip" />
    <clipPath
       clipPathUnits="userSpaceOnUse"
       id="clipPath8559-8">
      <path
         style="fill:none;stroke:#000000;stroke-width:1px;stroke-linecap:butt;stroke-linejoin:miter;stroke-opacity:1"
         d="m 421.15869,455.29321 -11.93242,10.29093 47.60343,2.14657 -11.67989,-11.17481 28.28427,6.50286 -0.25254,14.71034 -57.70496,9.28078 -24.62247,-10.29093 3.85121,-25.38008 z"
         id="path8561-50"
         inkscape:connector-curvature="0"
         sodipodi:nodetypes="cccccccccc" />
    </clipPath>
    <clipPath
       clipPathUnits="userSpaceOnUse"
       id="clipPath8549-7">
      <path
         style="fill:none;stroke:#000000;stroke-width:1px;stroke-linecap:butt;stroke-linejoin:miter;stroke-opacity:1"
         d="m 452.84564,454.00798 c -0.12176,0.21309 -0.22687,0.43659 -0.36521,0.63931 -0.13424,0.19663 -0.36636,0.31488 -0.49415,0.51577 -0.10105,0.15881 -0.14064,0.35155 -0.24168,0.51037 -0.0639,0.1004 -0.18313,0.15746 -0.24707,0.25788 -0.30077,0.47277 -0.42424,1.05833 -0.72501,1.5311 -0.0639,0.10041 -0.16472,0.17192 -0.24708,0.25789 -0.12354,0.12894 -0.24708,0.25788 -0.37061,0.38682 -0.16472,0.17192 -0.35542,0.32226 -0.49416,0.51577 -0.1097,0.15295 -0.14063,0.35154 -0.24167,0.51036 -3.33813,-2.99384 2.55962,6.21546 -1.57356,3.19114 -0.051,0.10756 -0.24964,0.13885 -0.24708,0.25788 10e-4,0.0595 0.086,0.0824 0.12894,0.12354 -0.0412,0.043 -0.12482,0.0694 -0.12353,0.12894 10e-4,0.0595 0.12767,0.064 0.12894,0.12354 10e-4,0.0595 -0.0806,0.1701 -0.12354,0.12894 -0.043,-0.0412 0.16471,-0.17192 0.12354,-0.12894 -0.0824,0.086 -0.1961,0.15032 -0.24708,0.25788 -0.0717,0.15144 0.0879,0.60602 0.0162,0.75744 -0.0509,0.10763 -0.16471,0.17192 -0.24707,0.25788 -0.0412,0.043 -0.10592,0.0721 -0.12354,0.12895 -0.0249,0.0805 0.0303,0.17207 0.005,0.25247 -0.0179,0.058 -0.31498,0.32877 -0.37062,0.38683 -0.11597,0.12105 -0.52228,0.59443 -0.61769,0.64472 -0.0745,0.0393 -0.1732,-0.0229 -0.25248,0.005 -0.056,0.02 -0.0675,0.1089 -0.12353,0.12894 -0.0793,0.0284 -0.17321,-0.0229 -0.25248,0.005 -0.11208,0.0401 -0.135,0.2178 -0.24707,0.25788 -0.0793,0.0284 -0.17321,-0.0229 -0.25248,0.005 -0.056,0.02 -0.0824,0.086 -0.12355,0.12894 -0.0412,0.043 -0.0823,0.086 -0.12353,0.12895 -0.28825,0.30086 -0.57651,0.60172 -0.86477,0.90259 -0.0556,0.0581 -0.31338,0.36641 -0.37061,0.38683 -0.0793,0.0283 -0.178,-0.0339 -0.25248,0.005 -0.10528,0.0555 -0.14631,0.19448 -0.24708,0.25789 -0.22531,0.14179 -0.52675,0.12688 -0.75203,0.26869 -0.10076,0.0634 -0.14631,0.19449 -0.24707,0.25788 -0.22531,0.14179 -0.50967,0.15863 -0.75205,0.2687 -0.17138,0.0778 -0.3452,0.15555 -0.49955,0.26328 -0.45538,0.31788 -0.0183,0.32244 -0.74663,0.52118 -0.16241,0.0443 -0.34254,-0.0335 -0.50496,0.0108 -0.18163,0.0495 -0.31795,0.21376 -0.49956,0.26329 -0.1624,0.0443 -0.33664,0.007 -0.50496,0.0108 -0.16833,0.004 -0.33664,0.007 -0.50496,0.0108 -0.16832,0.004 -0.33885,-0.0166 -0.50496,0.0108 -0.13136,0.0216 -0.25068,0.0896 -0.37602,0.13435 -0.2095,0.0466 -0.41674,0.10485 -0.6285,0.13974 -0.16612,0.0274 -0.34642,-0.0458 -0.50496,0.0108 -0.17727,0.0633 -0.32817,0.18546 -0.49955,0.26329 -0.12117,0.0551 -0.25828,0.0723 -0.37602,0.13435 -0.0527,0.0278 -0.0675,0.1089 -0.12354,0.12895 -0.15855,0.0566 -0.34641,-0.0459 -0.50497,0.0108 -0.25932,0.0927 0.0457,0.26495 -0.37601,0.13434 -0.0568,-0.0176 -0.0694,-0.12481 -0.12894,-0.12353 -0.11905,0.003 -0.12804,0.25534 -0.24708,0.25788 -0.0595,0.001 -0.0694,-0.12482 -0.12894,-0.12354 -0.0595,0.001 -0.064,0.12768 -0.12354,0.12895 -0.0595,10e-4 -0.0694,-0.12482 -0.12894,-0.12354 -0.13305,0.003 -0.25827,0.0723 -0.37602,0.13435 -0.0527,0.0278 -0.064,0.12767 -0.12354,0.12894 -0.0595,10e-4 -0.0721,-0.10592 -0.12894,-0.12354 -0.0804,-0.0249 -0.17207,0.0303 -0.25248,0.005 -0.0568,-0.0176 -0.0694,-0.12482 -0.12894,-0.12354 -0.0595,0.001 -0.0675,0.1089 -0.12354,0.12895 -0.0499,0.0178 -0.70681,0.0319 -0.75744,0.0162 -0.46971,-0.14549 0.475,-0.26277 -0.51037,-0.24168 -0.0595,10e-4 -0.0709,0.10117 -0.12354,0.12894 -0.11775,0.062 -0.24609,0.10546 -0.37601,0.13435 -0.0822,0.0182 -0.17031,-0.0129 -0.25248,0.005 -0.12991,0.0289 -0.24299,0.13147 -0.37602,0.13435 -0.0595,10e-4 -0.086,-0.0824 -0.12895,-0.12353 -0.0841,0.002 -0.17031,-0.0129 -0.25247,0.005 -0.1299,0.0289 -0.25828,0.0723 -0.37602,0.13435 -0.0527,0.0278 -0.064,0.12767 -0.12354,0.12894 -0.0595,0.001 -0.0704,-0.11311 -0.12894,-0.12355 -1.09206,0.0234 0.0148,0.0529 -0.88639,-0.10731 -0.0896,-0.0159 -0.67965,-0.0116 -0.75744,0.0162 -0.056,0.02 -0.064,0.12768 -0.12354,0.12894 -0.2003,0.004 -1.12285,-0.39204 -1.27321,-0.47793 -0.0516,-0.0295 -0.0721,-0.10591 -0.12894,-0.12354 -0.0804,-0.0249 -0.17639,0.0414 -0.25248,0.005 -0.10756,-0.051 -0.15032,-0.19609 -0.25788,-0.24708 -0.0761,-0.0361 -0.17207,0.0303 -0.25248,0.005 -0.0568,-0.0176 -0.086,-0.0824 -0.12894,-0.12354 -0.086,-0.0824 -0.1545,-0.18804 -0.25789,-0.24708 -0.11558,-0.066 -0.26113,-0.0612 -0.38142,-0.11813 -0.0538,-0.0255 -0.086,-0.0824 -0.12894,-0.12354 -0.10798,-0.10345 -0.52314,-0.54829 -0.64472,-0.61769 -0.11558,-0.066 -0.26585,-0.0521 -0.38142,-0.11813 -0.10339,-0.059 -0.17192,-0.16472 -0.25788,-0.24708 -0.12895,-0.12354 -0.25789,-0.24708 -0.38683,-0.37061 -0.38682,-0.37062 -0.77366,-0.74123 -1.16048,-1.11184 -0.98856,-0.94713 -1.97712,-1.89426 -2.96567,-2.84138 -0.34386,-0.32944 -0.6877,-0.65887 -1.03155,-0.9883 -0.043,-0.0412 -0.086,-0.0824 -0.12894,-0.12354 -0.043,-0.0412 -0.0694,-0.12482 -0.12894,-0.12354 -0.0595,0.001 -0.064,0.12768 -0.12354,0.12894 -0.0881,0.002 -0.3088,-0.39848 -0.38682,-0.37061 -0.11208,0.0401 -0.16472,0.17193 -0.24708,0.25789 -0.0412,0.043 -0.064,0.12768 -0.12354,0.12894 -0.12626,0.003 -0.26058,-0.37332 -0.38683,-0.37061 -0.0595,10e-4 -0.064,0.12767 -0.12354,0.12894 -0.0356,7.6e-4 -0.37303,-0.33206 -0.38682,-0.37061 -0.0284,-0.0793 0.0229,-0.17322 -0.005,-0.25248 -0.02,-0.056 -0.086,-0.0824 -0.12894,-0.12354 -2.18115,-1.65166 1.71826,-4.06019 -2.45531,-2.5997 -0.15988,-0.81786 -1.20346,-1.15302 -1.80519,-1.72953 -0.30087,-0.28826 -0.60174,-0.57652 -0.9026,-0.86477 -0.086,-0.0824 -0.15747,-0.18314 -0.25789,-0.24708 -0.1588,-0.10104 -0.35488,-0.13557 -0.51036,-0.24167 -0.14752,-0.10062 -0.24168,-0.26659 -0.38682,-0.37061 -0.74333,-0.53303 -0.41114,-0.2374 -1.02073,-0.48335 -0.17456,-0.0704 -0.33581,-0.17124 -0.51037,-0.24167 -0.24689,-0.0996 -0.50857,-0.15751 -0.76285,-0.23626 -0.12712,-0.0394 -0.24928,-0.10215 -0.38142,-0.11814 -0.49638,-0.0601 -1.0185,0.0925 -1.51488,0.0324 -0.13216,-0.016 -0.24838,-0.12095 -0.38143,-0.11814 -0.13304,0.003 -0.24467,0.11272 -0.37601,0.13435 -0.81942,0.13501 -0.2133,-0.17818 -1.13346,0.15057 -0.35451,0.12665 -0.6446,0.39991 -0.99912,0.52657 -0.20211,0.0722 -0.42638,0.0675 -0.62849,0.13975 -0.17727,0.0633 -0.31795,0.21376 -0.49955,0.26329 -0.16241,0.0443 -0.34255,-0.0335 -0.50497,0.0108 -0.18162,0.0495 -0.3223,0.19995 -0.49956,0.26328 -1.09863,0.39254 -0.18742,-0.14619 -1.12805,0.40305 -2.49253,1.4554 1.50829,-0.882 -1.24078,1.03694 -0.26287,0.18345 -0.61273,0.21416 -0.87557,0.39764 -0.52648,0.36749 -0.83246,1.05087 -1.35892,1.41837 -0.21827,0.15236 -0.52216,0.13445 -0.75204,0.26868 -0.0894,0.0523 -0.61907,0.64615 -0.74123,0.77366 -0.24707,0.25788 -0.49415,0.51577 -0.74123,0.77365 -0.0824,0.086 -0.18804,0.1545 -0.24707,0.25789 -0.13202,0.23116 -0.10423,0.5317 -0.23627,0.76285 -0.059,0.10339 -0.16471,0.17192 -0.24707,0.25788 -0.0394,0.12713 -0.0612,0.26113 -0.11813,0.38142 -0.0492,0.10379 -0.64582,0.67407 -0.74123,0.77366 -0.0412,0.043 -0.0981,0.0752 -0.12354,0.12894 -0.057,0.1203 -0.0521,0.26585 -0.11814,0.38143 -0.059,0.10338 -0.18313,0.15746 -0.24707,0.25788 -0.10105,0.1588 -0.1483,0.34692 -0.24167,0.51036 -0.059,0.10339 -0.19617,0.15026 -0.24708,0.25789 -0.11391,0.2406 -0.10422,0.5317 -0.23627,0.76284 -0.059,0.10338 -0.20252,0.14749 -0.24707,0.25788 -0.0803,0.19903 -0.0324,0.43488 -0.11273,0.63391 -0.0445,0.11039 -0.19616,0.15025 -0.24707,0.25789 -0.0361,0.0761 0.0201,0.16959 0.005,0.25247 -0.0239,0.13469 -0.29518,1.0406 -0.3544,1.14427 -0.0886,0.15505 -0.29422,0.22542 -0.37062,0.38683 -0.057,0.1203 -0.0612,0.26113 -0.11813,0.38142 -0.0255,0.0538 -0.0981,0.0752 -0.12354,0.12894 -0.057,0.1203 -0.0612,0.26113 -0.11813,0.38142 -0.0675,0.1426 -0.45503,0.38936 -0.49416,0.51577 -0.0249,0.0804 0.0202,0.16961 0.005,0.25249 -0.0233,0.13103 -0.0788,0.25428 -0.11813,0.38142 -0.0394,0.12713 -0.0521,0.26585 -0.11814,0.38143 -0.059,0.10338 -0.18804,0.15449 -0.24707,0.25788 -0.066,0.11558 -0.0788,0.25428 -0.11814,0.38142 -0.27003,0.87188 0.0477,-0.20989 -0.23086,1.01532 -0.059,0.25958 -0.20427,0.49859 -0.23626,0.76285 -0.0202,0.16714 0.007,0.33664 0.0108,0.50496 0.004,0.16832 0.007,0.33664 0.0108,0.50496 0.0155,0.72445 -0.008,1.432 0.17218,2.14338 0.0654,0.25804 0.19862,0.49523 0.26869,0.75203 0.11299,0.4141 0.18634,0.83801 0.2795,1.25701 0.0932,0.419 0.0631,0.88632 0.2795,1.257 0.24012,0.41122 0.72219,0.62627 1.03154,0.9883 2.87991,3.37006 -0.43123,0.0953 2.9819,3.59881 0.62301,0.63956 1.28942,1.23538 1.93413,1.85307 1.46135,1.4001 2.92269,2.80019 4.38404,4.20029 1.46135,1.4001 2.92269,2.8002 4.38404,4.20029 0.73067,0.70005 1.42151,1.44419 2.19202,2.10014 0.77581,0.66048 1.62607,1.22818 2.43909,1.84226 0.81304,0.61409 1.56975,1.31089 2.4391,1.84226 1.76048,1.07606 3.74568,1.56345 5.60861,2.40591 0.96106,0.43462 1.87314,0.97029 2.80971,1.45544 0.93657,0.48514 1.87314,0.97028 2.80971,1.45542 2.20366,1.14151 3.14287,1.67041 5.36154,2.6638 1.76705,0.79118 2.91267,1.28048 4.83496,1.66468 0.66551,0.13301 1.34726,0.1786 2.02524,0.20924 0.58866,0.0266 1.18594,0.058 1.76736,-0.0378 0.60469,-0.0996 1.17104,-0.36186 1.75656,-0.54279 1.17103,-0.36186 2.34207,-0.72372 3.5131,-1.08559 1.17104,-0.36186 2.34207,-0.72371 3.5131,-1.08558 0.58553,-0.18093 1.18397,-0.32437 1.75656,-0.54279 0.59899,-0.22849 1.19753,-0.47201 1.75115,-0.79527 0.006,-0.004 3.2175,-2.33173 3.2336,-2.34258 0.61068,-0.41131 1.30433,-0.70455 1.86929,-1.17669 0.0191,-0.0156 3.67672,-3.8419 3.70614,-3.86827 0.62279,-0.56635 1.3646,-0.99179 1.98741,-1.55812 0.66056,-0.60071 1.17023,-1.35889 1.85307,-1.93414 0.60736,-0.51164 1.38909,-0.78972 1.99282,-1.30564 0.76927,-0.65738 1.40009,-1.46134 2.10015,-2.19202 1.31773,-1.37538 2.63547,-2.75077 3.95321,-4.12615 0.61769,-0.64472 1.27963,-1.24976 1.85306,-1.93414 0.57853,-0.69042 1.01996,-1.48804 1.59519,-2.1812 1.06436,-1.28256 2.38866,-2.3329 3.45906,-3.61039 3.39181,-4.04799 -0.0817,-0.37033 2.9433,-4.10453 0.41213,-0.50879 0.98107,-0.88364 1.35892,-1.41837 0.32583,-0.46122 0.49722,-1.01439 0.72501,-1.5311 0.33444,-0.75862 0.6621,-1.52074 0.96128,-2.29394 0.25956,-0.67077 0.41613,-1.38151 0.71421,-2.03606 0.001,-0.004 1.69757,-2.79701 1.70791,-2.81511 0.4299,-0.75255 0.80918,-1.5329 1.21376,-2.29934 0.2023,-0.38323 0.35815,-0.79483 0.60688,-1.14968 0.57971,-0.82705 0.95761,-0.68957 1.35352,-1.67085 0.11135,-0.27599 0.0378,-0.597 0.10733,-0.88638 0.23106,-0.96117 0.79386,-2.16569 0.81612,-3.17492 0.009,-0.42913 -0.2315,-0.83046 -0.2795,-1.25699 -0.0565,-0.50192 0.0303,-1.01372 -0.0324,-1.51488 -0.0902,-0.72096 -0.38223,-1.41264 -0.42466,-2.13798 -0.0251,-0.4285 0.30146,-0.84536 0.22546,-1.2678 -0.21411,-1.19012 -0.65111,-0.89877 -1.17129,-1.61681 -0.25425,-0.35091 -0.38498,-0.78414 -0.65552,-1.12265 -0.29731,-0.37196 -0.68769,-0.65887 -1.03154,-0.98831 -0.30087,-0.28825 -0.60173,-0.5765 -0.90259,-0.86476 -0.30087,-0.28826 -0.60173,-0.57651 -0.9026,-0.86477 -0.25788,-0.24707 -0.47867,-0.5399 -0.77366,-0.74123 -0.87429,-0.59665 -1.19921,-0.43303 -2.165,-0.83774 -0.39966,-0.16748 -0.76644,-0.40459 -1.14967,-0.60688 -0.8712,-0.45988 -1.60607,-0.88719 -2.55182,-1.20836 -0.45441,-0.15431 -0.93476,-0.21912 -1.39676,-0.34899 -0.51253,-0.14408 -1.00917,-0.34348 -1.52568,-0.47254 -0.86384,-0.21584 -1.77288,-0.29433 -2.65915,-0.32198 -0.33656,-0.0105 -0.67614,-0.0227 -1.00992,0.0216 -1.33612,0.17747 -1.04077,0.23016 -2.13258,0.67714 -0.49271,0.20171 -1.00271,0.35826 -1.50407,0.53738 -1.4689,0.52482 -0.001,0.051 -1.63301,0.41386 -0.1299,0.0289 -0.25068,0.0896 -0.37602,0.13434 -0.25068,0.0896 -0.51211,0.15338 -0.75204,0.26869 -0.22122,0.1063 -0.4019,0.28592 -0.62309,0.39223 -0.42666,0.20507 -0.87195,0.23435 -1.25159,0.53199 -0.18739,0.14688 -0.32943,0.34384 -0.49415,0.51577 -0.24708,0.25788 -0.49415,0.51577 -0.74123,0.77366 -0.12354,0.12894 -0.22753,0.27997 -0.37061,0.38682 -1.14535,0.8557 0.0934,-0.35565 -0.87017,0.65012 -0.6177,0.64471 -1.23538,1.28942 -1.85307,1.93413 -0.2059,0.21491 -0.4118,0.42981 -0.61769,0.64472 -0.0412,0.043 -0.0981,0.0752 -0.12354,0.12894 -0.057,0.1203 -0.0612,0.26112 -0.11813,0.38142 -0.0255,0.0538 -0.0824,0.086 -0.12354,0.12894 -0.0824,0.086 -0.16472,0.17192 -0.24708,0.25789 -0.32944,0.34384 -0.65887,0.68769 -0.9883,1.03154 -0.14166,0.14785 -0.39954,0.35023 -0.49415,0.51576 -0.41966,0.73461 0.10092,0.15278 -0.24168,0.51037 -0.32943,0.34384 0.0841,-0.002 -0.25248,0.005 -0.0595,10e-4 -0.0824,0.086 -0.12353,0.12894 -0.0412,0.043 -0.10592,0.0721 -0.12354,0.12895 -0.0249,0.0804 0.004,0.16831 0.005,0.25247 0.002,0.0841 -0.0229,0.17322 0.005,0.25249 0.02,0.056 0.086,0.0824 0.12894,0.12354 z"
         id="path8551-7"
         inkscape:connector-curvature="0"
         sodipodi:nodetypes="ccccccsscccccccssccsccscsccccsssccccccccccscccccccccsccccccccccccscccccccccccccccscsccsccsssssscccscccccccssccccccccccsccccssccscssccccscccccccccccccccccccccsccsccssccsssssssssssssssssscccccssscssccscccssscsssssccssscsssssccsscccscsscsssccssscsssccccc" />
    </clipPath>
    <clipPath
       clipPathUnits="userSpaceOnUse"
       id="clipPath8565-6">
      <path
         style="fill:none;stroke:#000000;stroke-width:1px;stroke-linecap:butt;stroke-linejoin:miter;stroke-opacity:1"
         d="m 447.89852,477.42067 -0.41411,2.65013 -0.95022,2.42348 19.09842,-3.53136 8.10828,-14.76486 -11.57683,-10.95368 -33.13016,-0.49012 -29.11142,6.71058 -6.80931,5.53734 -6.52864,11.23949 18.55613,6.15732 9.6791,-0.85949 -0.231,-2.17939 z"
         id="path8567-85"
         inkscape:connector-curvature="0" />
    </clipPath>
    <clipPath
       id="clipPath7650"
       clipPathUnits="userSpaceOnUse">
      <path
         id="path7652"
         d="m 5.1877517,13.380047 -0.3264105,-2.86333 -10.5908406,0.436847 1.0405898,2.555879 z"
         style="display:none;fill:none;stroke:#000000;stroke-width:0.264583px;stroke-linecap:butt;stroke-linejoin:miter;stroke-opacity:1" />
      <path
         d="M -12.112001,6.3125311 H 13.154907 V 21.425973 h -25.266908 z m 17.2997527,7.0675159 -0.3264105,-2.86333 -10.5908406,0.436847 1.0405898,2.555879 z"
         class="powerclip"
         style="fill:none;stroke:#000000;stroke-width:0.264583px;stroke-linecap:butt;stroke-linejoin:miter;stroke-opacity:1"
         id="lpe_path-effect7654" />
    </clipPath>
    <clipPath
       id="clipPath7660"
       clipPathUnits="userSpaceOnUse">
      <path
         id="path7662"
         d="M -9.4169419,5.4632458 -8.9477081,3.1383659 -18.372993,3.0590489 -18.951375,5.64813 Z"
         style="display:none;fill:none;stroke:#000000;stroke-width:0.264583px;stroke-linecap:butt;stroke-linejoin:miter;stroke-opacity:1" />
      <path
         d="M -26.280944,-5.0320233 H -1.0140356 V 10.081419 H -26.280944 Z M -9.4169419,5.4632458 -8.9477081,3.1383659 -18.372993,3.0590489 -18.951375,5.64813 Z"
         class="powerclip"
         style="fill:none;stroke:#000000;stroke-width:0.264583px;stroke-linecap:butt;stroke-linejoin:miter;stroke-opacity:1"
         id="lpe_path-effect7664" />
    </clipPath>
    <clipPath
       id="clipPath7672"
       clipPathUnits="userSpaceOnUse">
      <path
         id="path7674"
         d="M 5.0899642,7.0417931 4.9618596,9.2214065 14.669784,8.5780475 14.561214,6.6104908 Z"
         style="display:none;fill:none;stroke:#000000;stroke-width:0.264583px;stroke-linecap:butt;stroke-linejoin:miter;stroke-opacity:1" />
      <path
         d="M -2.6620032,2.0972019 H 22.604905 V 17.210644 H -2.6620032 Z M 5.0899642,7.0417931 4.9618596,9.2214065 14.669784,8.5780475 14.561214,6.6104908 Z"
         class="powerclip"
         style="fill:none;stroke:#000000;stroke-width:0.264583px;stroke-linecap:butt;stroke-linejoin:miter;stroke-opacity:1"
         id="lpe_path-effect7676" />
    </clipPath>
    <linearGradient
       inkscape:collect="always"
       xlink:href="#linearGradient997"
       id="linearGradient999"
       x1="6.6044116"
       y1="10.225608"
       x2="6.6044116"
       y2="5.1269522"
       gradientUnits="userSpaceOnUse"
       gradientTransform="matrix(0.91666664,0,0,1.0422388,0.55036817,0.03685166)" />
    <linearGradient
       inkscape:collect="always"
       xlink:href="#linearGradient1013"
       id="linearGradient1015"
       x1="2.3710785"
       y1="3.2748687"
       x2="10.837744"
       y2="11.741534"
       gradientUnits="userSpaceOnUse" />
  </defs>
  <sodipodi:namedview
     inkscape:snap-bbox-midpoints="true"
     inkscape:snap-bbox-edge-midpoints="true"
     inkscape:bbox-nodes="true"
     inkscape:bbox-paths="true"
     units="px"
     fit-margin-bottom="0"
     fit-margin-right="0"
     fit-margin-left="0"
     fit-margin-top="0"
     inkscape:window-maximized="1"
     inkscape:window-y="0"
     inkscape:window-x="1920"
     inkscape:window-height="1027"
     inkscape:window-width="1920"
     inkscape:snap-global="true"
     inkscape:snap-nodes="true"
     inkscape:snap-object-midpoints="true"
     inkscape:snap-bbox="true"
     showgrid="true"
     inkscape:document-rotation="0"
     inkscape:current-layer="layer1"
     inkscape:document-units="px"
     inkscape:cy="15.651751"
     inkscape:cx="19.439353"
     inkscape:zoom="22.4"
     inkscape:pageshadow="2"
     inkscape:pageopacity="0"
     borderopacity="1.0"
     bordercolor="#666666"
     pagecolor="#ffffff"
     id="base"
     inkscape:pagecheckerboard="true">
    <inkscape:grid
       originy="0"
       originx="0"
       id="grid7563"
       type="xygrid"
       empspacing="2" />
  </sodipodi:namedview>
  <metadata
     id="metadata6588">
    <rdf:RDF>
      <cc:Work
         rdf:about="">
        <dc:format>image/svg+xml</dc:format>
        <dc:type
           rdf:resource="http://purl.org/dc/dcmitype/StillImage" />
        <dc:title />
      </cc:Work>
    </rdf:RDF>
  </metadata>
  <g
     transform="translate(-2.3710783,-3.2748688)"
     id="layer1"
     inkscape:groupmode="layer"
     inkscape:label="Layer 1">
    <rect
       style="opacity:1;fill:url(#linearGradient1015);fill-opacity:1;stroke:#321818;stroke-width:0.529167;stroke-linecap:round;stroke-linejoin:round;stroke-miterlimit:4;stroke-dasharray:none;stroke-opacity:1"
       id="rect947"
       width="7.9374986"
       height="7.9374986"
       x="2.6356621"
       y="3.5394523"
       ry="1.8520831" />
    <ellipse
       style="font-variation-settings:normal;opacity:1;vector-effect:none;fill:url(#linearGradient999);fill-opacity:1;stroke:#703838;stroke-width:0.529167;stroke-linecap:round;stroke-linejoin:round;stroke-miterlimit:4;stroke-dasharray:none;stroke-dashoffset:0;stroke-opacity:1;stop-color:#000000;stop-opacity:1"
       id="path898"
       cx="6.6044116"
       cy="8.0373678"
       rx="2.9104164"
       ry="2.3812494" />
    <ellipse
       style="opacity:1;fill:#f36666;fill-opacity:1;stroke:#010100;stroke-width:0.529167;stroke-linecap:round;stroke-linejoin:round;stroke-miterlimit:4;stroke-dasharray:none;stroke-opacity:0.997367"
       id="path900"
       cx="5.5460782"
       cy="8.0373688"
       rx="0.26458332"
       ry="0.79374987" />
    <ellipse
       ry="0.79374999"
       rx="0.26458332"
       cy="8.0373688"
       cx="7.662745"
       id="path900-3"
       style="opacity:1;fill:#f36666;fill-opacity:1;stroke:#010100;stroke-width:0.529167;stroke-linecap:round;stroke-linejoin:round;stroke-miterlimit:4;stroke-dasharray:none;stroke-opacity:0.997367" />
    <ellipse
       ry="0.2645832"
       rx="0.26458332"
       cy="4.8623686"
       cx="5.0169115"
       id="path900-6"
       style="opacity:1;fill:#f36666;fill-opacity:1;stroke:#010100;stroke-width:0.529167;stroke-linecap:round;stroke-linejoin:round;stroke-miterlimit:4;stroke-dasharray:none;stroke-opacity:0.997367" />
    <ellipse
       style="opacity:1;fill:#f36666;fill-opacity:1;stroke:#010100;stroke-width:0.529167;stroke-linecap:round;stroke-linejoin:round;stroke-miterlimit:4;stroke-dasharray:none;stroke-opacity:0.997367"
       id="path900-6-7"
       cx="8.1919117"
       cy="4.8623686"
       rx="0.26458332"
       ry="0.2645832"
       inkscape:export-xdpi="768"
       inkscape:export-ydpi="768" />
  </g>
</svg>
